# xmcd
#
# Track frame offsets:
#	225
#	13724
#	24592
#	34291
#	47206
#	61602
#	71849
#	82318
#	94782
#	109121
#	124206
#	138508
#	152528
#	165195
#
# Disc length: 2384 seconds
#
# Revision: 0
# Processed by: cddbd v1.5.2PL0 Copyright (c) Steve Scherf et al.
# Submitted via: audiograbber 1.83.01
#
DISCID=b9094d0e
DTITLE=Various Artist - Bullige Volksmusik CD1
DYEAR=1900
DGENRE=
TTITLE0=Die Mayrhofner - Geb`n ma Gas
TTITLE1=Orig. Tiroler Echo - Die Kraüter-Hex aus`n Zillertal
TTITLE2=Orig. Bergland Duo - A Boarischer
TTITLE3=Orig. Tiroler Buam - Zwei weiße Schwäne
TTITLE4=Die Mooskirchner - Dingl Dongl
TTITLE5=Sonnleit`n Duo - A Bussal von Dir - a Busserl von mir
TTITLE6=Trio Melody - Mein Heimantland Tirol
TTITLE7=Hias Kirchgasser - Amboss-Polka
TTITLE8=Goldried Quintett - Am Sonntag geh`n ma radlfahr`n
TTITLE9=Lederhose`n Dirndln - Pips geht auf Safari
TTITLE10=Attergauer Buam - Wir fahr`n zu unserer Omama
TTITLE11=Tiroler Nachtigall`n - A richtiger Mann
TTITLE12=Marc Pircher - Tirolerzeit
TTITLE13=Zangtaler Quintett - Ein Lied für Dich
EXTD=
EXTT0=
EXTT1=
EXTT2=
EXTT3=
EXTT4=
EXTT5=
EXTT6=
EXTT7=
EXTT8=
EXTT9=
EXTT10=
EXTT11=
EXTT12=
EXTT13=
PLAYORDER=
